<svg xmlns="http://www.w3.org/2000/svg" viewBox="0 0 1200 630" width="1200" height="630" role="img" aria-labelledby="t d">
<title id="t">One shoot, six destinations</title><desc id="d">Video production: One shoot, six destinations</desc>
<defs><radialGradient id="bg" cx="50%" cy="85%" r="90%"><stop offset="0%" stop-color="#16230c"/><stop offset="60%" stop-color="#050805"/><stop offset="100%" stop-color="#000"/></radialGradient><pattern id="dots" width="26" height="26" patternUnits="userSpaceOnUse"><circle cx="2" cy="2" r="1.4" fill="#223311" opacity="0.55"/></pattern></defs>
<rect width="1200" height="630" fill="url(#bg)"/>
<rect width="1200" height="630" fill="url(#dots)"/>
<rect x="1" y="1" width="1198" height="628" fill="none" stroke="#8cb478" stroke-opacity="0.25" stroke-width="2"/>
<text x="64" y="70" font-family="Inter, Arial, sans-serif" font-size="15" letter-spacing="4" fill="#b9d68a">VIDEO PRODUCTION</text>
<text x="64" y="128" font-family="Georgia, 'Playfair Display', serif" font-size="44" fill="#f5fae6">One shoot, six destinations</text>
<rect x="64" y="194" width="345" height="171" rx="10" fill="#141f0b" stroke="#8cb478" stroke-opacity="0.45"/>
<circle cx="88" cy="220" r="4" fill="#e6f578" opacity="0.9"/>
<text x="106" y="224" font-family="Inter, Arial, sans-serif" font-size="21" fill="#eef3df">Paid ads</text>
<rect x="427" y="194" width="345" height="171" rx="10" fill="#141f0b" stroke="#8cb478" stroke-opacity="0.45"/>
<circle cx="451" cy="220" r="4" fill="#e6f578" opacity="0.9"/>
<text x="469" y="224" font-family="Inter, Arial, sans-serif" font-size="21" fill="#eef3df">Reels</text>
<rect x="791" y="194" width="345" height="171" rx="10" fill="#141f0b" stroke="#8cb478" stroke-opacity="0.45"/>
<circle cx="815" cy="220" r="4" fill="#e6f578" opacity="0.9"/>
<text x="833" y="224" font-family="Inter, Arial, sans-serif" font-size="21" fill="#eef3df">Demos</text>
<rect x="64" y="383" width="345" height="171" rx="10" fill="#141f0b" stroke="#8cb478" stroke-opacity="0.45"/>
<circle cx="88" cy="409" r="4" fill="#e6f578" opacity="0.9"/>
<text x="106" y="413" font-family="Inter, Arial, sans-serif" font-size="21" fill="#eef3df">Website</text>
<rect x="427" y="383" width="345" height="171" rx="10" fill="#141f0b" stroke="#8cb478" stroke-opacity="0.45"/>
<circle cx="451" cy="409" r="4" fill="#e6f578" opacity="0.9"/>
<text x="469" y="413" font-family="Inter, Arial, sans-serif" font-size="21" fill="#eef3df">Launch</text>
<rect x="791" y="383" width="345" height="171" rx="10" fill="#141f0b" stroke="#8cb478" stroke-opacity="0.45"/>
<circle cx="815" cy="409" r="4" fill="#e6f578" opacity="0.9"/>
<text x="833" y="413" font-family="Inter, Arial, sans-serif" font-size="21" fill="#eef3df">Retargeting</text>
<text x="1136" y="568" font-family="Inter, Arial, sans-serif" font-size="13" fill="#6f8459" text-anchor="end">REVOLVYN</text>
</svg>